<svg height="512" viewBox="0 0 38 60" width="512" xmlns="http://www.w3.org/2000/svg"><g id="Page-1" fill="none" fill-rule="evenodd"><g id="011---Beer" fill-rule="nonzero"><path id="Shape" d="m33 14.22v4.61c.1655123 5.1410033-.3013191 10.2828654-1.39 15.31-.9684663 3.8716218-1.5711134 7.8256565-1.8 11.81l-.67 10.95c-.0536592 1.1796866-1.029112 2.1065875-2.21 2.1h-15.86c-1.180888.0065875-2.15634081-.9203134-2.21-2.1l-.67-10.95c-.22888658-3.9843435-.8315337-7.9383782-1.8-11.81-1.08868094-5.0271346-1.55551231-10.1689967-1.39-15.31v-1.4c.5587163.1811031 1.14266941.2722403 1.73.27 1.17717941.0072929 2.32483498-.3682396 3.27-1.07v5.87c.0000001 1.9329966 1.5670034 3.4999999 3.5 3.4999999s3.4999999-1.5670033 3.5-3.4999999v-7.11c.2928451.060116.5910483.0902714.89.09 1.7891239-.000247 3.4042073-1.071717 4.1-2.72.7215943.9928514 1.8701184 1.5860865 3.0974171 1.5998764s2.3888623-.5534892 3.1325829-1.5298764c1.2341444 1.2781329 3.0529131 1.8070217 4.78 1.39z" fill="#ff9801"/><path id="Shape" d="m7 17.679v4.821c0 1.9329966 1.56700338 3.5 3.5 3.5.5200078-.0029268 1.0326843-.1228931 1.5-.351-1.2171163-.5773171-1.994885-1.8019139-2-3.149v-5.87c-.87248311.6420208-1.91755331 1.007447-3 1.049z" fill="#f57c00"/><path id="Shape" d="m31.82 14.36c-1.357839-.0006577-2.6571618-.5528699-3.6-1.53-.3650388.472994-.8323748.8572557-1.367 1.124.6209647.268545 1.2904551.4067316 1.967.406.39749.0002336.7935998-.0467625 1.18-.14v4.61c.1655123 5.1410033-.3013191 10.2828654-1.39 15.31-.9684663 3.8716218-1.5711134 7.8256565-1.8 11.81l-.67 10.95c-.0536592 1.1796866-1.029112 2.1065875-2.21 2.1000349l3-.0000349c1.180888.0065875 2.1563408-.9203134 2.21-2.1l.67-10.95c.2288866-3.9843435.8315337-7.9383782 1.8-11.81 1.0886809-5.0271346 1.5555123-10.1689967 1.39-15.31v-4.61c-.3864002.0932375-.78251.1402336-1.18.14z" fill="#f57c00"/><path id="Shape" d="m36.84 9.34c.0094756 2.1307455-1.3368937 4.0317386-3.35 4.73-.1599361.0604898-.3236097.1105939-.49.15-1.7270869.4170217-3.5458556-.1118671-4.78-1.39-.7437206.9763872-1.9052842 1.5436663-3.1325829 1.5298764s-2.3758228-.607025-3.0974171-1.5998764c-.6957927 1.648283-2.3108761 2.719753-4.1 2.72-.2989517.0002714-.5971549-.029884-.89-.09v7.11c0 1.9329966-1.5670034 3.5-3.5 3.5s-3.5-1.5670034-3.5-3.5v-5.87c-.94516502.7017604-2.09282059 1.0772929-3.27 1.07-.58733059.0022403-1.1712837-.0888969-1.73-.27-.17-.06-.33-.12-.49-.19-2.42018758-1.0503001-3.77029025-3.65563-3.23288174-6.2385799.53740852-2.58294992 2.81461838-4.43358121 5.45288174-4.4314201h.06c.21242815-1.56119031 1.34966331-2.83797607 2.87597553-3.22888769 1.52631217-.39091161 3.13728697.18201608 4.07402447 1.44888769.6840851-2.05349775 2.5010599-3.52083007 4.6525541-3.757258 2.1514942-.23642794 4.2437523.80131835 5.3574459 2.657258.6045109-.30643547 1.2722617-.46738053 1.95-.47 1.4160419.00765141 2.7444676.686707 3.58 1.83 1.542449-.9342981 3.4694794-.96172931 5.0378974-.07171431 1.5684181.89001501 2.5331396 2.55840067 2.5221026 4.36171431z" fill="#ffe0b2"/><path id="Shape" d="m16.958 14.933-.024.015c-1.7596238.9782591-2.8743086 2.8106124-2.934 4.823v2.729c-.005115 1.3470861-.7828837 2.5716829-2 3.149.5963474.2933918 1.2654677.4060125 1.925.324 1.8018021-.2960752 3.1120962-1.871411 3.075-3.697v-6.886c1.4539845.2988969 2.9609259-.1518333 4.012-1.2z" fill="#dfc49c"/><path id="Shape" d="m31.82 4.33c-.5104209.00232285-1.0170552.08777516-1.5.253 2.0609294.63727166 3.4797195 2.52582115 3.5179143 4.68269072.0381948 2.15686958-1.3128402 4.09446838-3.3499143 4.80430928-.046.017-.094.027-.14.043.4745853.1566199.9702893.2399117 1.47.247.3981589.0003922.7949495-.046605 1.182-.14.1663903-.0394061.3300639-.0895102.49-.15 2.305346-.8109487 3.689736-3.1663201 3.2767502-5.57499207-.4129859-2.40867195-2.5029321-4.16834091-4.9467502-4.16500793z" fill="#dfc49c"/><path id="Shape" d="m25.739 37.8-2.3.623-2.452-1.423 2.448-1.426 2.3.623c.0850461.0232724.1728272.0350438.261.035.5009181-.0006247.9240919-.3717738.9900468-.8683312.065955-.4965574-.2456601-.9653044-.7290468-1.0966688l-1.747-.473.47-1.769c.1419372-.5337832-.1757168-1.0815628-.7095-1.2235-.5337832-.1419371-1.0815628.1757168-1.2235.7095l-.619 2.333-2.428 1.416v-2.848l1.693-1.712c.3401253-.3990483.3142731-.9930442-.0592358-1.3610332-.3735088-.367989-.9678238-.3849953-1.3617642-.0389668l-1.272 1.28-1.272-1.28c-.3939404-.3460285-.9882554-.3290222-1.3617642.0389668-.3735089.367989-.3993611.9619849-.0592358 1.3610332l1.693 1.712v2.848l-2.432-1.416-.619-2.333c-.0918173-.3452972-.3608738-.615381-.7058185-.7085136-.3449448-.0931325-.7133725.0048354-.9665.257-.2531275.2521647-.3524988.6202164-.2606815.9655136l.47 1.769-1.747.473c-.4833867.1313644-.7950018.6001114-.7290468 1.0966688.0659549.4965574.4891287.8677065.9900468.8683312.0881728.0000438.1759539-.0117276.261-.035l2.3-.623 2.452 1.426-2.448 1.426-2.3-.623c-.3482204-.1038082-.725348-.0105583-.9850636.2435703-.2597156.2541287-.3611434.6291396-.2649311.9795348.0962122.3503951.3749221.621027.7279947.7068949l1.747.473-.47 1.769c-.1419372.5337832.1757168 1.0815628.7095 1.2235.5337832.1419371 1.0815628-.1757168 1.2235-.7095l.619-2.333 2.428-1.416v2.848l-1.693 1.712c-.3401253.3990483-.3142731.9930442.0592358 1.3610332.3735088.367989.9678238.3849953 1.3617642.0389668l1.272-1.28 1.272 1.28c.3939404.3460285.9882554.3290222 1.3617642-.0389668.3735089-.367989.3993611-.9619849.0592358-1.3610332l-1.693-1.712v-2.848l2.432 1.416.619 2.333c.1419372.5337832.6897168.8514371 1.2235.7095.5337832-.1419372.8514372-.6897168.7095-1.2235l-.47-1.769 1.747-.473c.5197206-.1549343.8212219-.6958958.6796293-1.2194085-.1415926-.5235128-.6746667-.8387498-1.2016293-.7105915z" fill="#f5f5f5"/><g fill="#000"><path id="Shape" d="m5.42 34.383c.95263896 3.8121294 1.54589982 7.7051527 1.772 11.628l.669 10.931c.07617077 1.7151128 1.49220896 3.0645191 3.209 3.058h15.86c1.7112171.0110575 3.126522-1.329688 3.208-3.039l.671-10.953c.225575-3.9221775.8185047-7.814555 1.771-11.626 1.109472-5.1061272 1.5863892-10.3293783 1.42-15.552v-3.895c2.7031274-1.0396888 4.2777714-3.8618922 3.7428537-6.70824319-.5349177-2.84635098-3.0267024-4.90434624-5.9228537-4.89175681-.7912455.00078037-1.5739641.1634497-2.3.478-1.4200631-1.40761889-3.4979567-1.92258016-5.411-1.341-1.3256001-1.66731301-3.3808004-2.58368901-5.506996-2.4554682-2.1261956.1282208-4.0563775 1.28493636-5.172004 3.0994682-.814052-.58182009-1.789403-.89505109-2.79-.896-2.11799146.01260809-3.9906268 1.37822238-4.65 3.391-2.93318138.32662713-5.28698761 2.57207143-5.7513917 5.4866155-.4644041 2.9145441 1.07497762 5.7803298 3.7613917 7.0023845v.731c-.16626742 5.2226181.31064844 10.4458543 1.42 15.552zm25.22-.483c-.9827634 3.9314213-1.5947748 7.9463229-1.828 11.992l-.671 10.968c-.0321791.6434776-.5667533 1.14671-1.211 1.14h-15.86c-.6524547.0068684-1.1908302-.5088527-1.212-1.161l-.67-10.946c-.23295828-4.0460344-.84497296-8.0612927-1.828-11.993-1.06691012-4.948967-1.52364397-10.009981-1.36-15.07v-.18c1.01360796.1146537 2.04000747-.0050929 3-.35v4.2c.00000007 2.4852813 2.0147187 4.4999999 4.5 4.4999999s4.4999999-2.0147186 4.5-4.4999999v-6.021c1.646955-.0295841 3.1916272-.8044947 4.2-2.107 1.8175526 1.3777046 4.3482052 1.3078591 6.087-.168 1.0243415.7520697 2.2622195 1.1571042 3.533 1.156.061 0 .119-.014.18-.015v3.485c.1637244 5.0600213-.2930103 10.1210452-1.36 15.07zm-28.48-21.77c.00605682-1.2196827.49804984-2.38663892 1.36705051-3.24250135.86900066-.85586242 2.04331602-1.33002204 3.26294949-1.31749865.49747903.00006633.91935798-.36556209.99-.858.20655128-1.42327552 1.42184821-2.48219858 2.86-2.492.909032.00525076 1.7619883.44025845 2.3 1.173.2230077.29563265.5911304.44382373.9567655.38515449s.6689142-.31459242.7882345-.66515449c.5595309-1.68562644 2.050228-2.89047653 3.8157153-3.08403709 1.7654874-.19356056 3.4818252.65968381 4.3932847 2.18403709.2695157.44440614.8345402.60826322 1.3.377 1.4935201-.74816834 3.3092978-.30058168 4.284 1.056.3034614.41231421.8693123.52885101 1.311.27 1.3109831-.77573693 2.9487782-.73951499 4.2241833.09342323 1.2754052.83293821 1.9670025 2.31798968 1.7837604 3.83022866-.1832422 1.51223901-1.2095119 2.78913181-2.6469437 3.29334811-1.4798107.504087-3.1175787.1153455-4.213-1-.2024618-.2066271-.4844829-.3154537-.7732636-.2983877-.2887807.0170661-.556021.1583523-.7327364.3873877-.5461628.7189471-1.3971275 1.1410996-2.3 1.141-.9244458-.0087847-1.7904426-.453646-2.336-1.2-.2136738-.2886541-.5657259-.4405616-.9223267-.3979762-.3566009.0425854-.6629812.2731231-.8026733.6039762-.5372601 1.2805974-1.791269 2.1130542-3.18 2.111-.230756.0005324-.4609589-.0225884-.687-.069-.2940834-.0600296-.5995785.01521-.8321474.2049475-.232569.1897374-.3676137.4739049-.3678526.7740525v7.11c0 1.3807119-1.1192881 2.5-2.5 2.5s-2.5-1.1192881-2.5-2.5v-5.87c0-.3787721-.2140024-.7250352-.5527864-.8944272s-.74419595-.132836-1.0472136.0944272c-1.38901149 1.0086706-3.22673047 1.1520158-4.75534633.3709249-1.52861587-.7810908-2.48920477-2.3543129-2.48565367-4.0709249z"/><path id="Shape" d="m20 54h-6.309l-.124-2.035c-.0217932-.3572656-.2325299-.6757661-.5528275-.8355254-.3202977-.1597593-.7014956-.1365063-1 .061-.2985045.1975063-.4689657.5392598-.4471725.8965254l.182 2.974c.0322873.5283293.470686.9399857 1 .939h7.251c.5522847 0 1-.4477153 1-1s-.4477153-1-1-1z"/><path id="Shape" d="m5.719 14.5c.3193448.1370409.66349749.2068246 1.011.205.52970433.0068697 1.04719966-.1591922 1.474-.473.44182778-.3313709.53137082-.9581722.19999998-1.4s-.95817218-.5313708-1.39999998-.2c-.08112367.05576-.1788257.0822136-.277.075-.07067611.0014637-.14096784-.010761-.207-.036-.21462829-.0921672-.35625883-.3005163-.363-.534 0-.5522847-.44771525-1-1-1s-1 .4477153-1 1c.00823545 1.0270459.62030781 1.9529915 1.562 2.363z"/><path id="Shape" d="m17.2 7.027c.2519259.08661557.527999.0691297.7669835-.04857905.2389844-.11770875.4211234-.32590944.5060165-.57842095.0699842-.23375333.2830372-.39546342.527-.4.2006981.00269977.3841143.11412794.479.291.2874642.47192732.9030727.62146421 1.375.334s.6214642-.90307268.334-1.375c-.5085732-.86074502-1.4743067-1.34363308-2.4680505-1.23407973-.9937438.10955336-1.8310933.7912188-2.1399495 1.74207973-.1784363.52158444.0988848 1.08919802.62 1.269z"/></g></g></g></svg>